<svg fill="none" height="358" viewBox="0 0 400 358" width="400" xmlns="http://www.w3.org/2000/svg"><path d="m138.856 273.482c3.662 2.318 10-2.074 13.79-4.882 2.318-1.708 13.178-12.324 10.982-15.864-.979-1.476-1.913-2.981-2.8-4.514 5-2.684 6.346-10.982 4.27-16.23s-6.466-9.152-10.738-12.814c-8.054-6.832-15.986-13.666-24.04-20.5-5.492-4.76-11.226-9.518-18.182-11.716-6.956-2.074-15.498-.854-19.77 5-4.148 5.614-3.294 13.302-1.098 19.892 5.248 15.74 16.718 28.92 20.746 44.906 1.22 4.516 1.952 9.64 5.492 12.57 5.856 5 12.69 5.246 19.158.732.336 1.349 1.105 2.55 2.19 3.42z" fill="#fdb849"/><path d="m147.276 272.262c5.387-2.811 10.126-6.719 13.912-11.472 1.446-1.632 2.454-3.605 2.928-5.734.084-.225.106-.468.063-.705-.043-.236-.149-.456-.307-.637-.488-.488-1.342-.244-2.074 0-4.68 2.197-9.033 5.03-12.936 8.42-3.294 2.8-9.274 7.444-8.542 12.324 2.445-.245 4.813-.993 6.956-2.196z" fill="#000"/><path d="m53.5579 175.736c-6.5918 8.73-14.6921 16.21-23.918 22.088-5.248 3.416-10.984 6.224-15.254 10.982-6.22396 6.834-8.29796 16.6-7.19996 25.748.976 9.152 4.88196 17.694 9.15196 25.87 9.9154 18.583 22.8212 35.408 38.2 49.8 30.752-.978 58.4521 2.318 89.0821-.49-2.981-11.213-3.85-22.882-2.564-34.412 1.344-11.348 8.542-27.334 5.492-38.438-2.684-9.52-9.64-16.964-15.986-24.528-8.611-10.205-16.366-21.103-23.186-32.582-2.636 4.465-6.219 8.297-10.4981 11.226-3.8672 2.892-8.5965 4.397-13.424 4.27-3.607-.524-7.0602-1.814-10.128-3.782-7.3159-4.268-13.9745-9.574-19.768-15.752z" fill="#ffd340"/><path d="m11.824 345.6c39.048-9.762 79.562 2.684 119.344 8.42 66.12 9.341 133.534.175 194.76-26.48 30.63-13.424 60.4-34.414 74.072-64.92-62.724 1.22-127.644-16.6-187.682 1.83-67.6 20.744-135.164 41.489-202.69202 62.234.1816 6.357.91702 12.687 2.19802 18.916z" fill="#008c6e"/><path d="m189.742 268.478c-3.904-1.098-7.81-2.684-11.836-2.44-2.017.345-4.073.386-6.102.122-2.276-.73-4.276-2.134-5.736-4.026l-5.49-5.492c-3.637 1.962-7.036 4.337-10.128 7.078-3.085 2.669-5.579 5.952-7.322 9.64 4.026 4.4 11.348 11.47 12.812 12.57 3.54 2.8 7.932 1.342 12.082 1.22l46.858-1.098c-.121-4.464.498-8.918 1.832-13.18-9.109-.609-18.139-2.08-26.97-4.394z" fill="#dd4040"/><path d="m195.356 317.778 73.096-23.184-40.758-4.76-70.9 18.914z" fill="#643cff"/><path d="m195.356 313.874 73.096-23.186-40.758-4.758-70.9 18.914zm-25.626-3.538c4.432.57 8.606 2.403 12.025 5.281 3.418 2.877 5.937 6.677 7.255 10.947-5.124 5.858-13.666 6.834-21.476 6.956-8.539.469-17.104-.104-25.504-1.708-2.048-.311-4.005-1.062-5.736-2.2-.853-.557-1.555-1.317-2.044-2.211-.488-.895-.748-1.896-.756-2.915.277-2.023 1.327-3.859 2.93-5.124 8.9-8.66 20.736-10.362 33.306-9.026z" fill="#9778ff"/><path d="m63.7999 278.974c2.562-8.908-1.83-18.8-5.126-26.97-2.8467-7.547-6.5303-14.75-10.982-21.476-2.1667-.347-4.3236-.754-6.468-1.22-1.1543 6.285-2.7442 12.483-4.758 18.548-1.8035 7.094-3.0685 14.315-3.784 21.6-.6 4.758-1.098 9.4-1.464 14.154 6.2032 8.416 13.0583 16.332 20.502 23.674.3222-2.771.8938-5.508 1.708-8.176 1.2253-3.812 2.992-7.428 5.246-10.738 2.1531-2.868 3.8797-6.033 5.126-9.396z" fill="#000"/><path d="m117.38 322.172c4.88 5.858 13.422 7.688 20.866 5.98 1.682-.482 3.394-.849 5.126-1.098 3.66-.244 7.2 1.464 10.738 2.684s9.274 2.562 11.714-.61c3.174.732 5.248.366 7.2-2.2 1.239.191 2.507-.013 3.624-.583 1.117-.569 2.027-1.476 2.6-2.591-6.834-5.124-14.766-10.25-23.186-11.6 1.708-2.32 6.224-1.83 9.03-1.098 2.564.61 6.102 2.2 8.786 2.074 1.161-.066 2.288-.412 3.286-1.007.999-.595 1.839-1.422 2.45-2.411-3.782-1.708-7.444-3.416-11.226-5-3.865-1.879-7.914-3.354-12.082-4.4-13.3-2.684-26.6 3.906-38.682 10.252-1.588 3.188-2.564 8.802-.244 11.608z" fill="#f7846c"/><path d="m148.13 320.342c3.418 1.464 5.492 1.952 8.42 3.538 3.052 1.708 9.274 5.248 9.274 5.248.752.231 1.533.354 2.32.366-5.126-5.248-19.77-9.396-20.014-9.152zm5.126-3.784c3.689.879 7.286 2.105 10.744 3.662 3.285 1.792 6.321 4.008 9.03 6.59.67.244 1.406.244 2.076 0-2.781-2.585-5.853-4.837-9.154-6.712-3.974-1.961-8.28-3.162-12.696-3.54z" fill="#dd4040"/><path d="m15.3619 213.322c6.224-2.686 13.8.366 18.182 5.612 4.272 5.248 5.614 12.326 7.078 18.916 5.858 26.236 4.15 42.466 8.298 64.92 13.0616.979 26.058 2.69 38.928 5.124 14.6441 2.93 28.3101 2.2 45.4001-1.464-1.22 5.736-6.588 13.424-9.64 18.548-23.064-2.928-46.0001 1.098-69.1901 3.174-7.2.61-21.6 1.83-24.65-2.076-1.464-1.83-2.44-9.03-2.93-11.348-.488-2.562-1.464-5.126-2.2-7.688-2.074-7.2-4.148-14.278-6.102-21.476-4.636-16.842-9.15199-33.926-9.88399-51.376-.612-8.298-.734-17.694 6.70999-20.866z" fill="#f7846c"/><path d="m35.742 326.81c1.098-5-1.222-10.496-7.322-7.078-.2704.119-.5181.284-.732.488.2504 2.063.9143 4.055 1.952 5.856 1.5762 1.429 3.6093 2.252 5.736 2.32.122-.61.244-1.098.366-1.586z" fill="#dd4040"/><path d="m19.024 301.548c4.5278.581 9.125.292 13.544-.854 2.8-.488 13.546-3.782 17.816-8.298.732-1.952-1.342-4.514-1.464-6.344 5.614-.122 10.616-6.956 11.106-12.57s-1.71-11.104-3.906-16.23c-4.148-9.762-8.176-19.4-12.324-29.164-2.8-6.712-5.736-13.546-10.984-18.55s-13.422-7.688-19.89-4.4c-6.10204 3.172-8.90804 10.494-9.88404 17.328-2.320004 16.352 1.952 33.314-1.466 49.544-.976004 4.514-2.562004 9.4-.732004 13.8 3.052004 7.2 9.030004 10.372 16.840044 9.274-.244 1.716.244 6.342 1.344 6.464z" fill="#ffd340"/><path d="m128.85 76.038c-8.176-2.2-17.2 2.44-21.722 10.372-1.824 3.2808-2.985 6.8888-3.416 10.618-.366 2.8764-.366 5.788 0 8.664.599 3.782 2.127 7.357 4.449 10.403 2.321 3.046 5.363 5.467 8.851 7.047 3.405 1.272 7.106 1.534 10.656.753 3.551-.78 6.8-2.57 9.358-5.153 11.47-11.342 7.688-38.434-8.176-42.704z" fill="#643cff"/><path d="m122.138 134.49c-2.074 8.908.366 18.304 3.418 26.968s6.832 17.328 7.564 26.482-2.32 19.28-10.12 24.162c2.414-2.599 3.975-5.874 4.476-9.386.5-3.511-.084-7.092-1.676-10.262.679 5.009.177 10.108-1.466 14.888-1.019 2.713-2.668 5.146-4.81 7.097-2.143 1.952-4.718 3.367-7.514 4.129 1.243-1.357 2.189-2.959 2.778-4.703.588-1.744.805-3.592.638-5.425-.056-1.889-.508-3.745-1.328-5.448s-1.988-3.214-3.43-4.436c1.313 3.029 1.801 6.352 1.414 9.631-.386 3.279-1.633 6.398-3.614 9.039 2.93-6.468.244-14.034-3.05-20.256-3.294-6.346-7.9321-11.838-11.2261-18.184-5.6111-10.786-6.9619-23.287-3.784-35.022 2.27.489 4.6292.362 6.834-.366 8.4221-2.798 17.3301-4.398 24.8961-8.908z" fill="#c54016"/><path d="m61.612 185.986c4.7678-22.032 4.14-44.891-1.83-66.628 1.708 3.418 5.734 4.272 9.274 5.858 7.7754 3.317 15.8174 5.97 24.04 7.932.1184 18.575 2.08 37.092 5.856 55.28-5.4184 3.819-11.9251 5.788-18.552 5.612-6.952-.24-13.298-3.904-18.788-8.054z" fill="#000"/><path d="m82.1119 161.824c-4.1417-1.755-7.9125-4.28-11.112-7.442-2.3735-1.968-4.5779-4.132-6.59-6.468.7741 12.759-.1676 25.564-2.8 38.072 5.368 4.15 11.836 7.932 18.67 8.054 6.628.192 13.1385-1.777 18.548-5.612-1.9294-9.725-3.3977-19.536-4.4-29.4-1.6186 1.519-3.6132 2.579-5.7782 3.071-2.1649.491-4.4217.397-6.5378-.275zm51.1301-39.902c-.601 5.089-2.257 9.996-4.862 14.409s-6.102 8.233-10.268 11.217c-9.152 6.222-21.8441 6.588-32.3381 4.636-9.5641-1.673-18.0761-7.067-23.674-15-2.6114-4.389-4.6227-9.108-5.98-14.032-2.4999-9.027-4.4561-18.196-5.858-27.458-1.586-9.152-4.27-19.524-1.098-28.8 3.54-10.494 15.132-16.84 24.772-20.868 11.472-4.758 26.8481-7.688 37.7081.122 1.223.8743 2.366 1.8548 3.416 2.93 10.374 11.104 15.986 29.164 17.572 43.8.978 9.64 1.954 19.768.61 29.044z" fill="#f7846c"/><path d="m48.9199 114.234c2.587 2.719 4.4721 6.028 5.492 9.64-1.5543-1.539-3.4919-2.635-5.612-3.174-2.074-.488-3.904.122-6.468-.732 2.32-.244 3.906-.488 4.76-1.464.854-.854-.488-4.758-4.4-8.42 2.2555 1.093 4.3509 2.489 6.228 4.15zm58.5741-.488c3.34-1.028 6.603-2.292 9.764-3.784-1.808-.588-3.482-1.527-4.927-2.762-1.445-1.236-2.633-2.744-3.495-4.438-1.818-3.9907-3.209-8.1626-4.148-12.446 0 9.152-.488 14.884 2.806 23.43z" fill="#dd4040"/><path d="m130.314 79.942c-1.145-.884-2.491-1.4695-3.919-1.7038-1.427-.2343-2.89-.1099-4.257.3618-2.583.8792-5.237 1.533-7.932 1.954-1.601.0148-3.175-.4098-4.552-1.2275-1.376-.8178-2.502-1.9974-3.254-3.4105 3.747-1.8566 7.673-3.3307 11.716-4.4 1.253-.4661 2.624-.509 3.904-.122 1.434.5671 2.725 1.4447 3.78 2.57 2.074 1.708 2.684 3.66 4.514 5.978zm-63.4561 12.936c2.2068-2.7437 5.324-4.6056 8.786-5.248 3.3482-.5268 6.6526-1.3016 9.886-2.318 1.7079-.657 3.2375-1.706 4.4655-3.0626 1.2281-1.3566 2.1202-2.9828 2.6045-4.7474-5.0815.383-10.1349 1.0756-15.132 2.074-1.6457.3196-3.2181.9407-4.638 1.832-1.3471 1.1172-2.4656 2.4843-3.294 4.026-1.578 2.566-1.456 4.516-2.678 7.444z" fill="#000"/><path d="m98.0979 167.438c-1.952 7.932-4.758 15.132-7.2 22.82-10.8472-7.21-20.2777-16.351-27.822-26.968-3.7463 6.27-6.7753 12.942-9.03 19.89 4.514 4.516 8.298 9.884 12.812 14.278 7.566 7.566 15.254 15.376 20.014 25.138 1.83-8.786 4.148-17.084 5.98-25.87 4.4 7.444 8.5421 14.276 12.9341 21.6-5.37-16.476-1.098-34.78-7.6881-50.888z" fill="#fff"/><path d="m96.146 98.126c-1.5002-2.6208-3.6966-4.775-6.346-6.224-1.9137-.7565-3.9926-.997-6.0284-.6972-2.0359.2997-3.9572 1.1292-5.5716 2.4052-3.0834 2.2896-5.2129 5.6369-5.98 9.4 5.975.041 11.9156-.908 17.58-2.81 2.074-.6 4.272-1.464 6.346-2.074zm35.754-7.2c-1.441-2.6051-3.658-4.6956-6.344-5.98-1.914-.7561-3.993-.9964-6.028-.6966-2.036.2997-3.957 1.1289-5.572 2.4046-3.062 2.2197-5.226 5.4654-6.096 9.146 6.009.1348 11.997-.7733 17.696-2.684 2.074-.482 4.27-1.58 6.344-2.19z" fill="#dd4040"/><path d="m72.106 103c.968-2.2 2.4502-4.1359 4.3219-5.6442s4.0782-2.5451 6.4339-3.0233 4.7919-.3838 7.1035.2753c2.3117.6591 4.4313 1.8636 6.1807 3.5122 0 0-2.562 3.66-10.494 5.49-4.4776 1.129-9.1881.916-13.546-.61zm35.876-7.2c.968-2.2002 2.45-4.1359 4.322-5.6442s4.078-2.5451 6.434-3.0233 4.792-.3838 7.103.2753c2.312.6591 4.432 1.8636 6.181 3.5122 0 0-2.562 3.66-10.494 5.49-4.476 1.1412-9.19.9289-13.546-.61z" fill="#fff"/><path d="m86.1399 94.098c-.5761 2.2176-1.5228 4.3218-2.8 6.224-.8636 1.35-1.7982 2.653-2.8 3.904 1.7241-.033 3.4409-.234 5.126-.6 7.932-1.83 10.494-5.49 10.494-5.49-2.7349-2.5243-6.299-3.9607-10.02-4.038zm34.7781-7.2c-1.476 3.6058-3.403 7.0097-5.736 10.13 2.131.0158 4.257-.1893 6.346-.612 7.932-1.83 10.494-5.49 10.494-5.49-3.063-2.6923-7.028-4.1307-11.104-4.028z" fill="#000"/><path d="m117.746 47.238c-2.054-2.5232-4.532-4.6699-7.322-6.344-7.566-4.516-17.084-4.028-25.626-2.32-16.84 3.418-43.444 12.814-50.766 28.8-9.518 20.5 7.444 44.54 2.568 66.026-.244 1.22-.6 2.318-.854 3.538-4.028 14.156-12.57 24.894-19.4 36.976-3.05 5.614-5.98 11.958-5.98 18.8 0 5.98 2.93 12.326 7.2 13.912 1.222 4.148 3.662 7.932 6.956 8.664-.7904-2.755-.8457-5.669-.1604-8.452.6852-2.783 2.0872-5.339 4.0664-7.412-.8595 4.048-.5597 8.257.865 12.142 1.4246 3.886 3.9164 7.291 7.189 9.824 2.9062 1.898 6.2836 2.949 9.7536 3.035 3.4701.086 6.8955-.796 9.8924-2.547 2.074 2.8 5 4.4 7.688 3.172-2.318-1.098-3.172-4.758-3.294-8.054-.0837-3.297.3276-6.587 1.22-9.762-.732 2.684.244 5.248.854 7.932.3345 2.681 1.4843 5.194 3.294 7.2 2.2 1.83 5 1.342 7.566.732-4.636-5.492-5.736-14.4-5.246-22.698.366-8.176 2.44-16.108 3.782-24.162 2.928-18.548-4.638-28.432-11.714-45.4-2.5623-6.392-4.8024-12.909-6.712-19.526.366.366 15.132-19.4 10.128-45.028 8.9208 3.6255 18.7935 4.1834 28.066 1.586.9446.3578 1.928.6035 2.93.732 4.2541 1.0494 8.748.4387 12.568-1.708.835.3393 1.692.6246 2.564.854 5.856 1.22 11.958-1.22 17.084-4.4-2.104-5.8576-5.202-11.3083-9.16-16.112zm-103 146.07c.0727-1.359.4243-2.689 1.033-3.907s1.4613-2.297 2.505-3.171c-1.6812 5.783-2.0973 11.86-1.22 17.818-.0082.066-.0016.134.0196.197.0211.063.0561.121.1024.169-2.1496-3.277-3.0162-7.231-2.434-11.106zm41.254 28.312c-1.5742-.518-2.9813-1.447-4.0756-2.692-1.0943-1.244-1.8361-2.759-2.1484-4.386-.3183-1.762-.219-3.574.2899-5.29.5088-1.717 1.4131-3.29 2.6401-4.594.122 4.88.122 10.25 1.952 14.52.3734.853.8225 1.67 1.342 2.442zm26.6-155.71c-1.7895-.6342-3.4115-1.6668-4.7433-3.0198-1.3319-1.3529-2.3388-2.9909-2.9447-4.7902 1.588 2.8 4.272 4.026 7.078 5.49 2.564 1.344 5.248 2.686 7.932 3.784-2.5013-.1099-4.9708-.6036-7.322-1.464zm14.888-2.93c-2.4391-2.7562-3.935-6.2188-4.27-9.884 1.961 3.1979 4.2507 6.1821 6.832 8.904 1.953 2.0396 4.271 3.6954 6.834 4.882-1.76.1047-3.52-.1922-5.148-.8682s-3.0803-1.7134-4.248-3.0338z" fill="#c54016"/><path d="m240.14 55.048c-1.708-5.856-7.442-13.544-11.958-17.572-12.814-11.104-32.338-14.276-48.568-10.128-16.84 4.4-33.07 18.8-31.728 37.464.732 10.25 10.984 20.5 20.258 25.87-2.442 8.176-4.144 9.762-12.814 14.518 3.418 1.83 19.892 1.708 27.334-8.3 15.01 5.614 33.2 4.028 42.224-1.464 16.23-9.88 19.646-24.768 15.252-40.388zm-61.14 9.276c-.346 1.1439-.942 2.1967-1.744 3.0828-.802.886-1.79 1.5832-2.894 2.0412-1.125.4162-2.342.5226-3.522.308s-2.281-.7423-3.188-1.528c-.883-.8214-1.487-1.8981-1.728-3.0797-.241-1.1815-.107-2.4088.384-3.5103.979-1.7088 2.541-3.008 4.4-3.66 4.392-1.708 10.004.61 8.292 6.346zm24.04 0c-.346 1.1441-.942 2.1971-1.745 3.0831-.802.8861-1.791 1.5831-2.895 2.0409-1.125.4162-2.342.5226-3.522.308s-2.281-.7423-3.188-1.528c-.883-.8214-1.487-1.8981-1.728-3.0797-.241-1.1815-.107-2.4088.384-3.5103.979-1.7088 2.541-3.008 4.4-3.66 4.516-1.708 10.128.61 8.298 6.346zm22.454 0c-.346 1.1438-.942 2.1965-1.744 3.0825s-1.79 1.5832-2.894 2.0415c-1.126.4162-2.342.5225-3.523.3079s-2.282-.7423-3.189-1.5279c-.881-.8228-1.483-1.8996-1.724-3.0806-.24-1.1811-.107-2.4077.382-3.5094.978-1.7101 2.54-3.0098 4.4-3.66 4.398-1.708 9.998.61 8.296 6.346z" fill="#fdb849"/><path d="m55.5099 90.56c-8.176-2.2-17.2 2.44-21.722 10.372-1.8247 3.28-2.9854 6.887-3.416 10.616-.366 2.876-.366 5.788 0 8.664.5985 3.783 2.1273 7.358 4.4491 10.404 2.3218 3.045 5.3638 5.467 8.8529 7.046 3.405 1.273 7.1052 1.535 10.6555.754s6.7994-2.57 9.3565-5.154c11.47-11.34 7.688-38.432-8.176-42.702z" fill="#9778ff"/><g fill="#000"><path d="m80.6479 134.49c-.8046.801-1.3239 1.843-1.4782 2.968-.1543 1.124.065 2.268.6242 3.256.5983.974 1.4803 1.741 2.5274 2.199 1.0472.458 2.2094.585 3.3306.363.9775-.175 1.8856-.624 2.6194-1.293.7339-.669 1.2638-1.532 1.5286-2.489 1.22-4.882-5.614-8.294-9.152-5.004z"/><path d="m84.1859 137.54c-.244.612-.732.856-.854 1.466-8.897-.253-17.5582-2.918-25.059-7.709-7.5007-4.792-13.5594-11.531-17.529-19.497 1.0647-.516 1.9244-1.375 2.44-2.44 7.816 15.124 23.918 26.716 41.002 28.18z"/><path d="m48.0659 100.2c-2.1923-.5124-4.4888-.343-6.5822.486-2.0934.828-3.8839 2.276-5.1318 4.15-1.0019 1.508-1.6682 3.213-1.954 5-.2842 1.365-.3254 2.77-.122 4.15.3125 1.89 1.105 3.668 2.3016 5.163 1.1966 1.496 2.7572 2.659 4.5324 3.379 1.7958.649 3.7293.822 5.6117.501s3.6493-1.125 5.1283-2.333c6.222-5.242 4.636-18.296-3.784-20.496z"/><path d="m49.2859 112.036c-3.0544-9.741-4.3758-19.9423-3.904-30.14.5265-10.2465 4.4311-20.0304 11.104-27.824 6.712-7.444 14.888-11.6 25.382-14.766-8.4469-.8049-16.9347 1.0425-24.2829 5.2855-7.3482 4.2429-13.1915 10.6704-16.7171 18.3885-1.6341 3.8705-2.7815 7.9289-3.416 12.082-2.3157 13.2099-1.3542 26.786 2.8 39.538 3.1571-.216 6.2341-1.089 9.034-2.564z"/></g><path d="m115.304 126.558c-.244 2.562-.6 5.492-2.562 7.2-.964.724-2.08 1.221-3.263 1.454-1.184.232-2.405.194-3.571-.112-1.768-.375-3.444-1.096-4.931-2.123-1.4869-1.026-2.7558-2.337-3.7331-3.857 5.8581-.854 12.0821-1.464 18.0601-2.562z" fill="#fff"/><path d="m94.0719 129.976c2.9832 3.114 6.4951 5.675 10.3721 7.564 1.626.681 3.364 1.054 5.126 1.1.868.029 1.732-.13 2.533-.468.8-.337 1.518-.844 2.103-1.486.68-.913 1.177-1.949 1.464-3.05.507-1.992.709-4.049.6-6.102-.6 0-1.83-.732-1.952-.122-1.342 12.2-8.42 4.638-16.7181 1.586-1.2-.488-2.43.602-3.528.978z" fill="#dd4040"/><path d="m110.424 121.432c3.05-.976 6.712-1.464 8.786 0 .292.335.514.725.654 1.147.139.421.194.867.16 1.31-.035.443-.156.874-.359 1.27-.202.395-.482.746-.821 1.033-.653.51-1.401.883-2.2 1.098-4.634 1.71-9.882 1.71-14.644 2.31-2.4421.368-8.1761.978-9.6421.122 5.618-1.212 12.2081-6.458 18.0661-8.29z" fill="#000"/><path d="m339.352 1.47801c-6.76-1.382234-13.726-1.4236845-20.502-.122-7.728 1.43402-15.056 4.52165-21.479 9.05139-6.424 4.5297-11.793 10.3945-15.739 17.1926-7.566 13.668-7.932 31.484.122 44.908s25.138 22.574 40.514 19.646c1.957 8.258 1.097 16.933-2.442 24.646 4.148-2.763 7.707-6.322 10.472-10.469s4.68-8.8011 5.636-13.693c19.77-3.66 37.342-27.578 37.708-47.714.488-19.894-14.642-39.17599-34.29-43.44599zm-9.642 71.63199c-.616 1.6215-1.841 2.9378-3.415 3.6674-1.573.7295-3.37.8145-5.005.2366-1.066-.3077-2.017-.9238-2.733-1.7708-.717-.847-1.166-1.8871-1.293-2.9892-.103-1.1081.092-2.2235.563-3.2314.472-1.0079 1.204-1.8718 2.121-2.5026.948-.7738 2.106-1.2447 3.325-1.3517 1.218-.107 2.441.1549 3.509.7517 1.214.706 2.16 1.7947 2.69 3.0956.53 1.301.614 2.7409.238 4.0944zm13.912-36.6c-.816 4.4206-3.308 8.3552-6.956 10.982-1.586 1.1-3.538 1.832-5 3.052-1.712 1.6915-2.753 3.946-2.93 6.346-.151 1.0008-.589 1.9365-1.26 2.6942s-1.547 1.305-2.522 1.5758c-.939.1288-1.894.0297-2.787-.2888-.892-.3185-1.694-.8472-2.339-1.5412-1.342-1.83-.976-4.638-.732-6.712.274-2.2539 1.208-4.3766 2.684-6.102 2.2-2.44 5.736-3.416 7.81-6.1.582-.6963 1.016-1.5035 1.276-2.3726.261-.8691.342-1.782.24-2.6835-.103-.9015-.388-1.7727-.837-2.561s-1.054-1.4771-1.777-2.0249c-2.928-1.952-6.6-.732-9.152 1.1-2.8 1.952-6.6 6.344-10.372 4.27-.965-.5935-1.705-1.4914-2.104-2.5521-.398-1.0607-.432-2.2238-.096-3.3059.995-3.6277 3.135-6.8374 6.1-9.152 3.539-3.2332 8.139-5.0594 12.932-5.134 7.078.244 13.424 3.538 16.352 10.128 1.395 3.2674 1.903 6.8455 1.47 10.372z" fill="#14d29b"/><path d="m169.242 311.068-3.906-3.174c10.984-50.887 23.879-101.407 38.684-151.56 51.862-13.912 104.58-26.114 157.052-37.586l3.906 3.174zm84.322 20.866c-7.932 1.098-42.466-6.468-46.616-7.322s-10.616-3.66 15.986-12.08 26.6-12.936 68.46-4.15z" fill="#000"/><path d="m323.488 258.35c11.529-46.104 25.376-91.597 41.49-136.306-52.6 11.47-105.19 23.672-157.052 37.584-14.766 50.032-27.58 100.674-38.684 151.572 50.758-15.752 104.702-34.302 154.246-52.85z" fill="#643cff"/><path d="m277.848 255.3c4.272-1.586 10.25 4.026 11.838 12.446 1.464 8.054.854 18.184-5.248 20.502s5.492 3.538 9.64-1.708c4.272-5.248 4.272-13.302 2.928-20.746-1.22-7.444-10.86-15.254-17.084-13.546-6.1 1.588-2.074 3.052-2.074 3.052z" fill="#000"/><path d="m307.502 293.372c-1.22-7.687-2.563-15.374-4.028-23.062-2.8-15.132-6.102-30.264-9.762-45.274-13.059 4.126-26.516 6.866-40.148 8.176.976 28.556 1.952 56.988 2.93 85.544.122 3.05-.49 11.47-2.93 13.056 3.418.61 50.764-17.938 52.962-20.866 3.904-5.126 1.952-11.716.976-17.574zm-17.816-9.274c-1.303 1.869-3.129 3.313-5.248 4.15-1.692.438-3.467.433-5.156-.016s-3.233-1.326-4.484-2.546c-2.46-2.48-4.154-5.616-4.882-9.032-1.097-3.774-1.222-7.764-.366-11.6.461-1.909 1.304-3.704 2.479-5.277 1.174-1.573 2.656-2.891 4.355-3.875 1.712-.951 3.667-1.376 5.619-1.225 1.953.152 3.818.875 5.363 2.079 7.078 5.744 7.444 20.508 2.32 27.342z" fill="#9778ff"/><path d="m253.564 233.212-1.83 4.4s2.562 66.262 1.83 76.268c-.434 6.226-1.922 12.332-4.4 18.06 1.463.14 2.937.14 4.4 0 2.074-.244 4.516-2.2 4.028-15.254-.366-13.306-4.028-83.474-4.028-83.474zm-151.926 42.222-.854-1.464c5.58-3.486 11.805-5.81 18.304-6.834l.244 1.708c-6.287.963-12.309 3.206-17.694 6.59z" fill="#000"/></svg>